<svg width="42" height="37" viewBox="0 0 42 37" fill="none" xmlns="http://www.w3.org/2000/svg">
<path d="M1.99046 36.2673C1.62107 36.2673 1.28526 36.1753 0.983033 35.9912C0.680806 35.8072 0.44574 35.5634 0.277836 35.2598C0.109932 34.9563 0.0179209 34.6285 0.0018021 34.2766C-0.0143167 33.9247 0.0776947 33.5808 0.277836 33.245L18.9152 1.00742C19.1167 0.671616 19.3773 0.41976 19.6969 0.251856C20.0166 0.083952 20.3437 0 20.6782 0C21.0126 0 21.3404 0.083952 21.6614 0.251856C21.9825 0.41976 22.2424 0.671616 22.4412 1.00742L41.0785 33.245C41.28 33.5808 41.3727 33.9253 41.3566 34.2786C41.3404 34.6319 41.2478 34.959 41.0785 35.2598C40.9093 35.5607 40.6742 35.8045 40.3733 35.9912C40.0724 36.1779 39.7366 36.27 39.3659 36.2673H1.99046ZM5.46607 32.2376H35.8903L20.6782 6.04455L5.46607 32.2376ZM20.6782 30.2227C21.2491 30.2227 21.7279 30.0293 22.1148 29.6425C22.5016 29.2556 22.6944 28.7774 22.693 28.2079C22.6917 27.6383 22.4983 27.1602 22.1127 26.7733C21.7272 26.3865 21.2491 26.193 20.6782 26.193C20.1073 26.193 19.6291 26.3865 19.2436 26.7733C18.8581 27.1602 18.6647 27.6383 18.6633 28.2079C18.662 28.7774 18.8554 29.2563 19.2436 29.6445C19.6318 30.0327 20.11 30.2254 20.6782 30.2227ZM20.6782 24.1782C21.2491 24.1782 21.7279 23.9848 22.1148 23.5979C22.5016 23.2111 22.6944 22.7329 22.693 22.1633V16.1188C22.693 15.5479 22.4996 15.0697 22.1127 14.6842C21.7259 14.2987 21.2477 14.1053 20.6782 14.1039C20.1086 14.1026 19.6305 14.296 19.2436 14.6842C18.8568 15.0724 18.6633 15.5506 18.6633 16.1188V22.1633C18.6633 22.7342 18.8568 23.2131 19.2436 23.5999C19.6305 23.9868 20.1086 24.1795 20.6782 24.1782Z" fill="#F41414"/>
</svg>
